<?xml version="1.0" encoding="utf-8"?>
<!-- Generator: Adobe Illustrator 26.2.1, SVG Export Plug-In . SVG Version: 6.00 Build 0)  -->
<svg version="1.1" id="Calque_1" xmlns="http://www.w3.org/2000/svg" xmlns:xlink="http://www.w3.org/1999/xlink" x="0px" y="0px"
	 viewBox="0 0 1500 800" style="enable-background:new 0 0 1500 800;" xml:space="preserve">
<style type="text/css">
	.st0{fill:#59C0D0;}
	.st1{fill:none;}
</style>
<g>
	<g>
		<path class="st0" d="M0,488.37c11.92-1.26,19.64-3.38,23.18-6.37c3.53-2.99,5.3-10.57,5.3-22.74V315.15
			c0-11.49-1.74-19.01-5.22-22.54c-3.48-3.53-11.23-5.72-23.25-6.56v-6.01h91.44v6.01c-11.92,0.63-19.91,2.59-23.97,5.85
			c-4.06,3.27-6.09,10.28-6.09,21.04V468.6c0,3.59,0.61,6.4,1.82,8.47c1.21,2.05,3.88,3.35,8,3.87c2.43,0.32,4.99,0.53,7.68,0.63
			c2.69,0.11,7.73,0.16,15.13,0.16c28.82,0,48.31-2.37,58.44-7.12c10.14-4.75,19.96-16.87,29.46-36.38h8.24l-15.84,56.16H0V488.37z"
			/>
		<path class="st0" d="M199.04,496.28v-6.01c8.33-0.94,14.58-4.07,18.75-9.4c4.16-5.33,11.31-19.91,21.42-43.74l67.49-158.99h6.45
			l80.72,183.66c5.38,12.17,9.67,19.69,12.89,22.57c3.22,2.88,8.62,4.85,16.21,5.9v6.01h-82.39v-6.01
			c9.47-0.84,15.57-1.87,18.31-3.07c2.74-1.21,4.11-4.18,4.11-8.9c0-1.57-0.53-4.35-1.58-8.34c-1.06-3.99-2.53-8.19-4.43-12.6
			l-12.97-31.16h-85.38c-8.41,21.2-13.44,34.13-15.07,38.8c-1.64,4.67-2.45,8.37-2.45,11.1c0,5.46,2.21,9.24,6.64,11.33
			c2.74,1.26,7.89,2.2,15.47,2.83v6.01H199.04z M338.56,413.07l-37.13-89.22l-37.3,89.22H338.56z"/>
		<path class="st0" d="M585.15,281.06c12.13,3.48,19.09,5.22,20.88,5.22c4.64,0,7.93-0.89,9.89-2.69c1.95-1.79,3.61-4.37,4.98-7.75
			h7.12l2.53,68.18h-7.44c-6.64-15.71-13.5-27.42-20.57-35.12c-12.76-13.5-29.37-20.25-49.83-20.25c-20.78,0-39.05,7.89-54.81,23.65
			c-15.77,15.77-23.65,41.74-23.65,77.91c0,29.85,7.85,53.15,23.57,69.92c15.71,16.77,35.12,25.15,58.21,25.15
			c3.9,0,8.49-0.37,13.76-1.1c5.27-0.74,10.28-1.89,15.03-3.47c7.7-2.52,12.5-4.71,14.4-6.55c1.9-1.84,2.85-4.55,2.85-8.13v-51.61
			c0-12.51-1.77-20.3-5.3-23.38c-3.54-3.08-11.26-4.98-23.18-5.73v-6.01h82.58v6.01c-8.02,0.53-13.34,1.85-15.98,3.95
			c-4.43,3.38-6.64,10.34-6.64,20.88v63.75c0,3.8-9.31,8.86-27.92,15.19c-18.62,6.33-36.52,9.49-53.71,9.49
			c-31.64,0-58.32-9.23-80.05-27.68c-23.94-20.35-35.91-47.67-35.91-81.94c0-30.16,9.54-56,28.63-77.51
			c20.98-23.73,48.83-35.59,83.53-35.59C560.68,275.84,573.02,277.58,585.15,281.06z"/>
		<g>
			<path class="st0" d="M1237.82,486.48c13.39-1.37,21.99-4.4,25.79-9.09s5.69-15.57,5.69-32.64V302.01l-4.43-5.21
				c-4.75-5.58-8.78-9.04-12.1-10.35s-8.3-2.08-14.95-2.29v-6.01h55.28l125.06,155.01V325.48c0-17.71-2.64-29.23-7.91-34.58
				c-3.48-3.46-11.18-5.71-23.1-6.76v-6.01h76.09v6.01c-12.34,1.27-20.56,4.27-24.68,9.02c-4.11,4.75-6.17,15.61-6.17,32.59v170.53
				h-5.54l-143.32-177.65v126.12c0,17.7,2.58,29.24,7.75,34.61c3.37,3.48,10.92,5.85,22.62,7.11v6.01h-76.09V486.48z"/>
		</g>
		<path class="st0" d="M1037.89,152.28c36.55-0.04,70.52,9.21,101.2,29.22c33.19,21.65,56.01,51.1,64.76,90.28
			c5.9,26.4,3.47,52.3-7.02,77.3c-13.68,32.6-36.99,56.48-67.47,73.72c-14.25,8.06-29.4,13.97-45.31,17.89
			c-4.1,1.01-4.18,1.17-3.68,5.05c3.76,29.35-2.22,56.67-17.08,82.14c-15.18,26-36.56,45.72-62.23,60.98
			c-27.35,16.26-56.95,26.03-88.41,30.48c-15.16,2.15-30.38,3.29-45.66,2.65c-46.38-1.95-89.71-13.88-128.41-40.26
			c-24.73-16.86-44.41-38.25-57.25-65.55c-10.07-21.42-13.88-44-11.39-67.42c2.78-26.16,13.33-49.28,29.56-69.85
			c15.58-19.76,34.86-35.1,56.85-47.11c25.59-13.97,52.94-22.58,81.78-26.7c8.75-1.25,17.53-1.88,26.32-2.5
			c5.26-0.37,4.71-0.87,4.69-5c-0.1-21.35,5.46-41.29,15.38-60.02c12.17-23,29.61-41.27,51.27-55.53
			c23.5-15.48,49.4-24.57,77.21-28.37C1021.24,152.54,1029.54,152.1,1037.89,152.28z M904.9,324.33c-3.37,0.62-6.1,0.33-8.77,0.05
			c-12.42-1.32-24.74-0.2-37.07,1.12c-26.15,2.8-50.78,10.48-73.76,23.26c-17.56,9.77-32.82,22.33-45.23,38.2
			c-13.28,16.98-21.58,36.14-23.52,57.66c-2.11,23.45,3.7,45.2,16.19,65.05c16.97,26.97,41.36,45.12,70.3,57.4
			c29.53,12.53,60.41,17.5,92.47,15.74c22.22-1.21,43.74-5.49,64.42-13.65c28.38-11.19,52.99-27.71,70.85-52.86
			c20.98-29.54,26.96-61.73,15.22-96.57c-0.42-1.24-1.22-2.45-0.62-4.21c5.66,0.01,11.35-0.79,17.03-1.68
			c11.85-1.86,22.79-6.64,33.88-10.81c23.53-8.86,43.52-22.9,59.02-42.83c19.64-25.26,27.62-53.84,22.54-85.55
			c-3.7-23.14-14.42-43.07-30.73-59.76c-28.26-28.9-63.41-42.11-103.25-43.94c-11.74-0.54-23.4,0.61-34.92,2.89
			c-34.49,6.83-63.79,22.68-85.88,50.53c-15.81,19.94-23.96,42.76-24.13,68.28C898.91,303.4,900.42,313.92,904.9,324.33z"/>
	</g>
	<g>
		<path class="st1" d="M1454.24,450.64c15.09,0,30.19,0,45.28-0.01c0.39,0,0.48,0.09,0.48,0.48c-0.01,14.94-0.01,29.87,0,44.81
			c0,0.39-0.09,0.48-0.48,0.48c-15.09-0.01-30.19-0.01-45.28-0.01C1454.24,481.13,1454.24,465.88,1454.24,450.64z M1477.07,451.08
			c-12.39-0.01-22.46,10.05-22.5,22.46c-0.04,12.36,10.05,22.46,22.45,22.5c12.39,0.04,22.53-10.09,22.52-22.49
			C1499.54,461.16,1489.47,451.09,1477.07,451.08z"/>
		<path class="st0" d="M1477.07,451.08c12.4,0.01,22.47,10.08,22.48,22.48c0.01,12.4-10.14,22.53-22.52,22.49
			c-12.41-0.04-22.49-10.14-22.45-22.5C1454.61,461.13,1464.69,451.07,1477.07,451.08z M1477.05,491.48
			c9.87,0.02,17.94-8.04,17.94-17.92c0-9.86-8.01-17.88-17.89-17.92c-9.87-0.04-17.93,7.99-17.96,17.89
			C1459.11,483.39,1467.16,491.46,1477.05,491.48z"/>
		<path class="st1" d="M1477.05,491.48c-9.89-0.02-17.94-8.09-17.91-17.94c0.03-9.9,8.09-17.93,17.96-17.89
			c9.88,0.04,17.88,8.05,17.89,17.92C1494.99,483.43,1486.92,491.49,1477.05,491.48z M1480.99,473.82c0.14-0.06,0.24-0.11,0.33-0.15
			c2.88-1.1,4.17-3,4.12-6.06c-0.05-3.11-1.46-4.95-4.46-5.81c-1.19-0.34-2.4-0.49-3.63-0.5c-3.25-0.02-6.5-0.01-9.75-0.03
			c-0.37,0-0.41,0.13-0.41,0.44c0.01,7.55,0.01,15.1,0,22.66c0,0.4,0.14,0.43,0.47,0.43c1.68-0.02,3.35-0.03,5.03,0.01
			c0.49,0.01,0.59-0.14,0.59-0.6c-0.02-2.61,0-5.22-0.02-7.83c0-0.4,0.11-0.5,0.49-0.48c0.55,0.04,1.11,0,1.66,0.03
			c1.13,0.05,2.06,0.51,2.74,1.43c0.42,0.57,0.76,1.19,1.07,1.83c0.86,1.75,1.72,3.49,2.58,5.24c0.1,0.21,0.18,0.38,0.47,0.38
			c1.94-0.01,3.87-0.01,5.81,0c0.26,0,0.36-0.05,0.21-0.32c-0.23-0.42-0.43-0.86-0.65-1.29c-1.11-2.18-2.1-4.42-3.32-6.54
			C1483.56,475.35,1482.57,474.28,1480.99,473.82z"/>
		<path class="st0" d="M1480.99,473.82c1.57,0.45,2.57,1.52,3.33,2.84c1.23,2.12,2.21,4.36,3.32,6.54c0.22,0.43,0.41,0.87,0.65,1.29
			c0.15,0.27,0.05,0.32-0.21,0.32c-1.94,0-3.87-0.01-5.81,0c-0.3,0-0.37-0.17-0.47-0.38c-0.86-1.75-1.72-3.49-2.58-5.24
			c-0.31-0.63-0.65-1.26-1.07-1.83c-0.69-0.92-1.61-1.38-2.74-1.43c-0.55-0.02-1.11,0.01-1.66-0.03c-0.38-0.03-0.5,0.08-0.49,0.48
			c0.02,2.61,0,5.22,0.02,7.83c0,0.46-0.1,0.61-0.59,0.6c-1.68-0.03-3.35-0.02-5.03-0.01c-0.33,0-0.47-0.04-0.47-0.43
			c0.01-7.55,0.01-15.1,0-22.66c0-0.31,0.04-0.44,0.41-0.44c3.25,0.02,6.5,0.01,9.75,0.03c1.23,0.01,2.45,0.16,3.63,0.5
			c3,0.86,4.41,2.69,4.46,5.81c0.05,3.06-1.24,4.96-4.12,6.06C1481.23,473.71,1481.14,473.76,1480.99,473.82z M1473.27,468.7
			c0,0.9,0.01,1.79,0,2.69c0,0.23,0.04,0.35,0.31,0.34c1.05-0.03,2.11,0.02,3.15-0.06c1.49-0.11,2.32-0.82,2.58-2.1
			c0.08-0.41,0.08-0.82,0.06-1.24c-0.09-1.55-0.84-2.35-2.37-2.57c-1.13-0.16-2.27-0.04-3.41-0.09c-0.32-0.01-0.31,0.16-0.31,0.39
			C1473.28,466.94,1473.27,467.82,1473.27,468.7z"/>
		<path class="st1" d="M1473.27,468.7c0-0.88,0-1.76,0-2.64c0-0.22-0.01-0.4,0.31-0.39c1.14,0.05,2.28-0.07,3.41,0.09
			c1.53,0.21,2.28,1.02,2.37,2.57c0.02,0.41,0.02,0.83-0.06,1.24c-0.26,1.28-1.09,2-2.58,2.1c-1.05,0.07-2.1,0.03-3.15,0.06
			c-0.27,0.01-0.31-0.11-0.31-0.34C1473.28,470.5,1473.27,469.6,1473.27,468.7z"/>
	</g>
</g>
</svg>
